<svg xmlns="http://www.w3.org/2000/svg" width="26.429" height="23.098" viewBox="0 0 26.429 23.098">
  <g id="Barcodeicon" transform="translate(-64.786 -744.705)">
    <path id="Path_2457" data-name="Path 2457" d="M107.977,281.074A1.084,1.084,0,0,0,106.882,280h-2.344a5.674,5.674,0,0,0-5.715,5.611v2.673a1.1,1.1,0,0,0,2.19,0v-2.673a3.5,3.5,0,0,1,3.526-3.464h2.342A1.083,1.083,0,0,0,107.977,281.074ZM119.487,280H117.2a1.074,1.074,0,1,0,0,2.147h2.291a3.508,3.508,0,0,1,3.539,3.47v2.669a1.094,1.094,0,0,0,2.189,0v-2.669A5.678,5.678,0,0,0,119.487,280Zm-11.439,5.382h7.943a3.25,3.25,0,0,1,3.264,3.258v1.79a.4.4,0,0,1-.393.387H105.174a.4.4,0,0,1-.388-.387v-1.79A3.261,3.261,0,0,1,108.048,285.382Z" transform="translate(-34 464.705)" fill="#fff" fill-rule="evenodd" opacity="0.4"/>
    <path id="Path_2458" data-name="Path 2458" d="M122.515,289.041h-24.6a.9.9,0,1,0,0,1.794H99.19v4.28a4.741,4.741,0,0,0,4.775,4.688h1.957a.9.9,0,1,0,0-1.794h-1.956a2.927,2.927,0,0,1-2.948-2.894v-4.28h3.151v1.191a2.725,2.725,0,0,0,2.726,2.722h6.636a2.725,2.725,0,0,0,2.727-2.722v-1.191h3.151v4.276a2.931,2.931,0,0,1-2.956,2.9H114.54a.9.9,0,1,0,0,1.794h1.914a4.744,4.744,0,0,0,4.785-4.694v-4.276h1.276a.9.9,0,1,0,0-1.794Z" transform="translate(-32.214 468)" fill="#fff"/>
  </g>
</svg>
