<svg xmlns="http://www.w3.org/2000/svg" width="21.633" height="22.772" viewBox="0 0 21.633 22.772">
  <path id="homeicon" d="M442.065,244.385v-3.492a1.615,1.615,0,0,1,1.61-1.609h3.273a1.615,1.615,0,0,1,1.62,1.609v3.482a1.4,1.4,0,0,0,1.4,1.4H452.2a3.939,3.939,0,0,0,2.782-1.137,3.88,3.88,0,0,0,1.153-2.759v-9.919a2.815,2.815,0,0,0-1.019-2.166l-7.585-6.023a3.548,3.548,0,0,0-4.507.081l-7.421,5.942a2.819,2.819,0,0,0-1.1,2.166v9.909a3.92,3.92,0,0,0,3.935,3.906h2.182a1.4,1.4,0,0,0,.994-.4,1.379,1.379,0,0,0,.413-.984Z" transform="translate(-434.5 -223)" fill="#fff"/>
</svg>
