<svg xmlns="http://www.w3.org/2000/svg" width="25" height="25" viewBox="0 0 25 25">
  <g id="menu" transform="translate(-1203 1257)">
    <path id="Path_13163" data-name="Path 13163" d="M392.076,223h3.385A2.549,2.549,0,0,1,398,225.56v3.415a2.548,2.548,0,0,1-2.539,2.559h-3.385a2.548,2.548,0,0,1-2.539-2.559V225.56A2.549,2.549,0,0,1,392.076,223Z" transform="translate(830 -1480)" fill="#fff" opacity="0.4"/>
    <path id="Path_13164" data-name="Path 13164" d="M381.174,223H385.4a3.186,3.186,0,0,1,3.174,3.2v4.269a3.185,3.185,0,0,1-3.174,3.2h-4.231a3.185,3.185,0,0,1-3.174-3.2V226.2A3.186,3.186,0,0,1,381.174,223Zm0,14.333H385.4a3.185,3.185,0,0,1,3.174,3.2V244.8A3.187,3.187,0,0,1,385.4,248h-4.231A3.187,3.187,0,0,1,378,244.8v-4.269A3.185,3.185,0,0,1,381.174,237.333Zm18.653,0H395.6a3.185,3.185,0,0,0-3.174,3.2V244.8A3.187,3.187,0,0,0,395.6,248h4.231A3.187,3.187,0,0,0,403,244.8v-4.269A3.185,3.185,0,0,0,399.826,237.333Z" transform="translate(825 -1480)" fill="#fff" fill-rule="evenodd"/>
  </g>
</svg>
