<svg xmlns="http://www.w3.org/2000/svg" width="25.082" height="24.153" viewBox="0 0 25.082 24.153">
  <g id="shopeicon" transform="translate(-821 -1794.705)">
    <path id="Path_2445" data-name="Path 2445" d="M885.911,297.97a1.88,1.88,0,1,1,1.886,1.888A1.893,1.893,0,0,1,885.911,297.97Zm13.958,0a1.88,1.88,0,1,1,1.886,1.888A1.892,1.892,0,0,1,899.869,297.97Z" transform="translate(-60 1519)" fill="#fff" fill-rule="evenodd" opacity="0.4"/>
    <path id="Path_2446" data-name="Path 2446" d="M904.8,284.323a2.132,2.132,0,0,1,1.767.84,2.665,2.665,0,0,1,.476,2.154l-1.19,8.221a3.2,3.2,0,0,1-3.171,2.744H889.006a3.194,3.194,0,0,1-3.183-2.931l-1.153-13.661-1.892-.326a.944.944,0,0,1-.764-1.078.958.958,0,0,1,1.09-.777l2.989.451a.946.946,0,0,1,.777.852l.238,2.807a.765.765,0,0,0,.764.7Zm-7.594,6.515h3.471a.94.94,0,0,0,0-1.88H897.2a.94.94,0,1,0,0,1.88Z" transform="translate(-61 1515.206)" fill="#fff" fill-rule="evenodd"/>
  </g>
</svg>
