<svg xmlns="http://www.w3.org/2000/svg" xmlns:xlink="http://www.w3.org/1999/xlink" width="359.562" height="193.293" viewBox="0 0 359.562 193.293">
  <defs>
    <linearGradient id="linear-gradient" x1="0.5" x2="0.5" y2="1" gradientUnits="objectBoundingBox">
      <stop offset="0" stop-color="#39b349"/>
      <stop offset="1" stop-color="#09a6a0"/>
    </linearGradient>
  </defs>
  <path id="logo-grdint" d="M134.791,193.293a11.91,11.91,0,0,1-6.964-2.274,19.018,19.018,0,0,1-4.72-5,30.3,30.3,0,0,1-3.529-7.277.064.064,0,0,1-.009.015,49.36,49.36,0,0,1-5.517,7.032,29.824,29.824,0,0,1-5.771,4.846,12.967,12.967,0,0,1-6.764,2.2,8.974,8.974,0,0,1-3.327-.637c-5.6-2.221-9.626-6.2-12.317-12.155a44.047,44.047,0,0,1-3.188-11.44,92.8,92.8,0,0,1-.849-15.846A85.48,85.48,0,0,1,84.8,133.641a166.494,166.494,0,0,1,5.991-18.32,207.186,207.186,0,0,1,8.547-19.179,66.837,66.837,0,0,1,4.261-5.28c2.3-2.566,5.707-5.922,8.9-7.342a14.554,14.554,0,0,1,5.8-1.481c2.99,0,5.26,1.579,7.145,4.967,1.358,2.442,1.34,5.631-.057,10.04a90.731,90.731,0,0,1-6.417,13.986,36.638,36.638,0,0,1-5.215,7.237,58.032,58.032,0,0,1-6.028,5.714,64.027,64.027,0,0,1-7.055,5.1L98.065,149c-.007.074-.684,7.5-.607,15.655a81.459,81.459,0,0,0,.869,12.074c.665,4.053,1.707,6.828,3.1,8.248a4.073,4.073,0,0,0,2.975,1.328c3.093,0,6.587-3.476,8.974-6.391a56.256,56.256,0,0,0,4.484-6.391,31.594,31.594,0,0,1-.451-8.356,54.79,54.79,0,0,1,1.449-9.658,71.23,71.23,0,0,1,4.355-12.61,47.99,47.99,0,0,1,6.013-10.078,34.4,34.4,0,0,1,6.752-6.569,22.391,22.391,0,0,1,12.766-4.645,11.966,11.966,0,0,1,3.1.379,10.511,10.511,0,0,1,4.13,2.194,13.089,13.089,0,0,1,2.6,3.082,15.355,15.355,0,0,1,1.738,3.935s.005-.009.017-.021a37.4,37.4,0,0,1,3.208-3.1c1.674-1.422,4.055-3.117,5.894-3.117.073,0,.147,0,.218.008a6.211,6.211,0,0,1,4.13,2.591,12.311,12.311,0,0,1,1.471,2.389,111.26,111.26,0,0,0-3.859,24.772q-.039.945-.078,1.884l0,.1c-.452,10.85-.878,21.1,1.949,25.654,1.132,1.825,2.378,2.75,3.7,2.75,1.285,0,2.662-.87,4.094-2.588a29.307,29.307,0,0,0,3.514-5.7,70.33,70.33,0,0,0,3.382-8.285c0-.391-.087-9.688.156-19.436.227-9.13.795-20.511,2.21-22.891,2.751-4.627,4.007-6.738,7.22-7.1a7.986,7.986,0,0,1,.863-.049c2.417,0,4.081,1.2,5.237,3.785.3.661-.131,3.793-.724,8.127-.468,3.436-1.051,7.711-1.393,11.791-.86,10.247-.627,20-.625,20.1a46.727,46.727,0,0,0,2.869-10.284c1.433-7.278,2.913-14.8,12.695-24.754,5.846-5.947,11.65-9.091,16.781-9.091a11.032,11.032,0,0,1,4.692,1.012,11.8,11.8,0,0,1,3.891,2.972c2.358,2.689,3.96,6.544,4.762,11.457,1.12,6.864-.714,16.493-2.487,25.8-2.062,10.827-4.009,21.053-.772,25a4.9,4.9,0,0,0,4.006,1.729h.078c3.141,0,6.263-1.721,9.279-5.116a47.184,47.184,0,0,0,6.988-11.255,107.443,107.443,0,0,0,5.938-16.37l.94-16.813a117.246,117.246,0,0,1,1.614-13.2,129.958,129.958,0,0,1,2.983-13.132,99.567,99.567,0,0,1,5.294-14.492c4.271-9.247,8.877-13.629,13.331-17.866,4.694-4.466,9.129-8.684,12.313-18.236,3.168-9.5,2.625-20.207,1.613-27.512a93.963,93.963,0,0,0-2.205-11L302.29,18l1.732,11.933s-8.147,2.623-10.637-8.39S301.811,0,301.811,0s.836,5.841,3.161,9.768c1.948,3.29,4.423,5.73,5.458,8.809,2.1,6.26-1.149,7.573-1.149,7.573l-2.641-3.078A71.063,71.063,0,0,1,309.467,31a72.685,72.685,0,0,1,2.557,13.093,65.873,65.873,0,0,1-.34,16.146,36.566,36.566,0,0,1-3.589,11.154,82.54,82.54,0,0,1-5.46,8.992c-1.516,2.265-2.946,4.4-4.145,6.619-3.217,5.939-4.651,12.308-6.039,18.466-.414,1.84-.842,3.74-1.306,5.56-2.23,8.75-4.757,25.2-5.271,39.7-.461,12.987.468,29.491,7.512,34.367a4.851,4.851,0,0,0,2.76.958c2.591,0,5.178-2.57,7.687-7.639a92.032,92.032,0,0,0,5.836-16.807c3.163-12.038,4.985-24.324,5-24.447l-4.481,32.126a63.151,63.151,0,0,1-4.933,11.6,31.712,31.712,0,0,1-6.017,7.973,12.234,12.234,0,0,1-8.251,3.625,10.618,10.618,0,0,1-2.664-.348c-3.227-.836-6.169-3.1-8.746-6.719a44.027,44.027,0,0,1-5.448-11.2,85.38,85.38,0,0,1-3.584-15.17.331.331,0,0,1-.015.05c-.417,1.3-1.94,5.928-4.05,11.031a85.122,85.122,0,0,1-4.134,8.748,23.327,23.327,0,0,1-4.693,6.349,32.541,32.541,0,0,1-7.2,4.622,21.308,21.308,0,0,1-8.888,2.115,16.47,16.47,0,0,1-11.173-4.419c-2.187-1.941-3.377-5.582-3.539-10.821a73.34,73.34,0,0,1,1.561-15.508,170.623,170.623,0,0,1,5.211-19.946,43.838,43.838,0,0,0,1.95-6.241c.711-3.115,1.217-7.339-.407-9.77a4.845,4.845,0,0,0-4.328-2.018,12.483,12.483,0,0,0-2.813.364c-1.885.443-4,1.794-6.29,4.017a48.324,48.324,0,0,0-6.518,8.15,80.426,80.426,0,0,0-9.973,21.818c-3.446,12.551-.973,23.071,0,24.773,1.984,3.473,1.429,8.316-1.12,9.778a4.484,4.484,0,0,1-2.246.626c-2.066,0-4.3-1.489-6.841-4.553-3.585-4.327-6.241-13.486-6.267-13.577l0,.017a44.148,44.148,0,0,1-3.869,9,23.552,23.552,0,0,1-4.943,6.2,10.24,10.24,0,0,1-10.313,2.287,13.578,13.578,0,0,1-7.44-6.33,32.23,32.23,0,0,1-3.624-9.865,62.239,62.239,0,0,1-1.26-13.07l0,.024a88.248,88.248,0,0,1-4.866,13.89,45.986,45.986,0,0,1-6.106,10.2c-2.7,3.272-5.587,5.278-8.568,5.959a13.435,13.435,0,0,1-2.984.349ZM146.48,131.5c-2.577,3.766-5.4,10.334-8.872,20.669-2.467,7.332-3.741,13.738-3.787,19.039-.038,4.311.759,7.844,2.3,10.214a5.873,5.873,0,0,0,4.217,2.935c.062.005.125.008.188.008,1.12,0,2.45-.869,3.951-2.584a37.057,37.057,0,0,0,4.442-6.75,97.267,97.267,0,0,0,7.746-19.96A51.4,51.4,0,0,0,158.44,139.1c-.248-4.505-1.212-8.239-2.644-10.244A3.2,3.2,0,0,0,153.5,127.3c-.239-.016-.458-.024-.67-.024C151.034,127.275,149.019,127.787,146.48,131.5ZM119.6,85.886a9.444,9.444,0,0,0-3.432,1.766c-1.839,1.37-4.55,4.076-7.025,9.189-4.733,9.774-8.06,30.416-8.092,30.623a71.641,71.641,0,0,0,8.185-7.765c4-4.415,9.29-11.339,11.733-19.248,2.621-8.483,1.89-12,.815-13.458a2.55,2.55,0,0,0-2.052-1.112C119.651,85.881,119.6,85.886,119.6,85.886ZM11.135,184.728C3.491,171.4-.149,151.545,0,137.413.715,71.992,13.213,59.854,20.683,59.955c4.117.055,6.262,1.188,5.017,10.2-.946,6.843-5.988,26.864-5.988,26.864s12.137-37.221,37.706-45.8S89.948,78.4,84.445,95.882s-18.448,41.591-46.607,39c-16.586-2.163-15.915-19.125-12.137-29.453,2.838-7.765,7.606-9.548,7.606-9.548s-5.937,7.2-7.606,15.536c-1.666,8.311,1.22,17.8,10.681,17.963,18.3.324,30.263-29.453,30.263-29.453s14.727-42.4-3.722-45.313S23.956,92.131,23.956,92.131s-8.775,22.038-7.643,55.861,12.947,41.915,12.947,41.915a13.135,13.135,0,0,1-7.3,2.468C18.586,192.375,14.574,190.725,11.135,184.728ZM317.485,120.4c-11.623-1-17.671-13.885-17.671-13.885a38.478,38.478,0,0,1,10.729-3.577,51.463,51.463,0,0,1,12.834,0,23.916,23.916,0,0,0-21.46-5.26c7.364-9.047,6-8.52,16.831-10.309s16.421,2.411,26.509,3.155c8.811.651,14.306-3.155,14.306-3.155s-4.418,15.463-14.306,23.352c-8.612,6.871-14.472,9.872-23.52,9.872C320.395,120.6,318.986,120.529,317.485,120.4ZM212.841,87.39c-15.043-30.905-1.915-60.169-1.915-60.169s6.172,8.873,20.513,15.863c12.016,5.855,24.9,10,34.187,16.957,18.873,14.147,10.119,43.213,10.119,43.213A49.289,49.289,0,0,1,255.779,95.6c-10.256-6.7-21.058-19.145-21.058-19.145s5.688,12.992,12.854,21.059a43.551,43.551,0,0,0,15.809,11.214,52.713,52.713,0,0,1-12.451,1.4C239.219,110.124,222.129,106.474,212.841,87.39Z" transform="translate(0)" fill="url(#linear-gradient)"/>
</svg>
