<svg xmlns="http://www.w3.org/2000/svg" xmlns:xlink="http://www.w3.org/1999/xlink" width="774" height="554" viewBox="0 0 774 554">
  <defs>
    <clipPath id="clip-plante-logo_3">
      <rect width="774" height="554"/>
    </clipPath>
  </defs>
  <g id="plante-logo_3" data-name="plante-logo – 3" clip-path="url(#clip-plante-logo_3)">
    <rect width="774" height="554" fill="#f1f1f1"/>
    <path id="Path_8" data-name="Path 8" d="M828.258,1654.523s-10.481,8.154-18.125-5.179-11.284-33.184-11.131-47.315c.711-65.422,13.208-77.558,20.679-77.458,4.116.055,6.262,1.189,5.017,10.2-.945,6.843-5.988,26.864-5.988,26.864s12.138-37.222,37.707-45.8,32.528,27.188,27.026,44.666-18.449,41.591-46.608,39c-16.586-2.163-15.915-19.125-12.138-29.454,2.838-7.765,7.606-9.548,7.606-9.548s-5.938,7.2-7.606,15.536c-1.666,8.311,1.22,17.8,10.681,17.964,18.3.324,30.263-29.454,30.263-29.454s14.727-42.4-3.722-45.314-38.965,37.517-38.965,37.517-8.775,22.038-7.642,55.861S828.258,1654.523,828.258,1654.523Z" transform="translate(-592 -1315)" fill="#09a6a0"/>
    <path id="Subtraction_2" data-name="Subtraction 2" d="M52.989,174.277h0A11.907,11.907,0,0,1,46.024,172a19,19,0,0,1-4.72-5,30.326,30.326,0,0,1-3.529-7.277.055.055,0,0,1-.009.016,49.43,49.43,0,0,1-5.517,7.031,29.844,29.844,0,0,1-5.77,4.845,12.971,12.971,0,0,1-6.765,2.2,8.977,8.977,0,0,1-3.327-.637c-5.6-2.222-9.625-6.2-12.317-12.154A44.068,44.068,0,0,1,.881,149.587a92.815,92.815,0,0,1-.849-15.846A85.521,85.521,0,0,1,3,114.626,166.374,166.374,0,0,1,8.99,96.306a207.054,207.054,0,0,1,8.547-19.179A67.046,67.046,0,0,1,21.8,71.846c2.3-2.566,5.707-5.922,8.9-7.342a14.559,14.559,0,0,1,5.8-1.482c2.989,0,5.26,1.578,7.144,4.967,1.358,2.442,1.34,5.632-.057,10.04a90.721,90.721,0,0,1-6.417,13.986,36.626,36.626,0,0,1-5.215,7.237,58.03,58.03,0,0,1-6.028,5.714,64.048,64.048,0,0,1-7.055,5.1l-2.614,19.92c-.007.074-.684,7.5-.607,15.654a81.51,81.51,0,0,0,.869,12.075c.665,4.053,1.707,6.828,3.1,8.247A4.075,4.075,0,0,0,22.6,167.29c3.093,0,6.587-3.475,8.974-6.391a56.126,56.126,0,0,0,4.483-6.391,31.611,31.611,0,0,1-.451-8.356,54.878,54.878,0,0,1,1.449-9.657,71.253,71.253,0,0,1,4.355-12.61,48.039,48.039,0,0,1,6.013-10.079,34.41,34.41,0,0,1,6.752-6.569,22.393,22.393,0,0,1,12.765-4.645,11.978,11.978,0,0,1,3.1.379,10.5,10.5,0,0,1,4.13,2.194,13.111,13.111,0,0,1,2.6,3.083,15.359,15.359,0,0,1,1.737,3.935.1.1,0,0,1,.017-.021,37.527,37.527,0,0,1,3.208-3.1c1.674-1.422,4.055-3.116,5.894-3.116.073,0,.147,0,.218.008a6.206,6.206,0,0,1,4.13,2.591,12.292,12.292,0,0,1,1.471,2.389,111.292,111.292,0,0,0-3.859,24.772q-.038.945-.078,1.884l0,.1c-.452,10.85-.878,21.1,1.949,25.654,1.133,1.825,2.378,2.751,3.7,2.751,1.285,0,2.663-.871,4.094-2.589a29.287,29.287,0,0,0,3.514-5.7,70.169,70.169,0,0,0,3.382-8.284c0-.392-.087-9.689.156-19.436.227-9.129.795-20.511,2.21-22.89,2.752-4.627,4.007-6.739,7.22-7.1a7.863,7.863,0,0,1,.864-.05c2.417,0,4.081,1.2,5.236,3.785.3.66-.131,3.792-.723,8.127-.469,3.437-1.052,7.711-1.394,11.791-.859,10.247-.627,20-.625,20.1a46.741,46.741,0,0,0,2.87-10.284c1.432-7.279,2.913-14.805,12.694-24.754,5.847-5.947,11.65-9.091,16.782-9.091a11.04,11.04,0,0,1,4.692,1.011,11.81,11.81,0,0,1,3.891,2.973c2.357,2.689,3.959,6.543,4.761,11.457,1.12,6.864-.713,16.492-2.486,25.8-2.062,10.827-4.009,21.053-.772,25a4.9,4.9,0,0,0,4.006,1.729h.079c3.141,0,6.263-1.721,9.279-5.116a47.193,47.193,0,0,0,6.987-11.255,107.327,107.327,0,0,0,5.938-16.37l.941-16.813a117.546,117.546,0,0,1,1.614-13.2,130.122,130.122,0,0,1,2.983-13.132,99.644,99.644,0,0,1,5.293-14.492c4.272-9.248,8.877-13.629,13.331-17.866,4.695-4.466,9.129-8.684,12.313-18.236,3.168-9.5,2.626-20.207,1.613-27.512A87.234,87.234,0,0,0,222.9,0l.009.013a62.939,62.939,0,0,1,4.75,11.973,72.775,72.775,0,0,1,2.557,13.093,65.841,65.841,0,0,1-.341,16.146,36.554,36.554,0,0,1-3.589,11.153,82.413,82.413,0,0,1-5.46,8.992c-1.515,2.266-2.945,4.4-4.145,6.62-3.216,5.939-4.651,12.307-6.039,18.466-.415,1.84-.843,3.74-1.306,5.56-2.229,8.75-4.756,25.2-5.271,39.7-.461,12.987.468,29.492,7.512,34.368a4.85,4.85,0,0,0,2.761.958c2.591,0,5.177-2.57,7.687-7.639a92.039,92.039,0,0,0,5.836-16.807c3.163-12.038,4.985-24.324,5-24.446l-4.481,32.125a63.159,63.159,0,0,1-4.932,11.6,31.725,31.725,0,0,1-6.017,7.974,12.238,12.238,0,0,1-8.252,3.625,10.63,10.63,0,0,1-2.664-.348c-3.227-.837-6.169-3.1-8.746-6.718a44.054,44.054,0,0,1-5.448-11.2,85.443,85.443,0,0,1-3.584-15.171.372.372,0,0,1-.015.051c-.417,1.3-1.94,5.928-4.05,11.031a85.2,85.2,0,0,1-4.134,8.748,23.325,23.325,0,0,1-4.693,6.348,32.555,32.555,0,0,1-7.2,4.622,21.3,21.3,0,0,1-8.888,2.115,16.47,16.47,0,0,1-11.173-4.419c-2.186-1.941-3.377-5.582-3.539-10.821a73.342,73.342,0,0,1,1.561-15.508,170.8,170.8,0,0,1,5.211-19.946,43.821,43.821,0,0,0,1.951-6.241c.711-3.115,1.217-7.339-.407-9.77a4.845,4.845,0,0,0-4.328-2.018,12.47,12.47,0,0,0-2.813.364c-1.884.442-4,1.794-6.289,4.017a48.351,48.351,0,0,0-6.518,8.15,80.446,80.446,0,0,0-9.973,21.818c-3.446,12.55-.973,23.071,0,24.773,1.984,3.473,1.429,8.316-1.12,9.778a4.483,4.483,0,0,1-2.246.627c-2.067,0-4.3-1.489-6.842-4.553-3.584-4.327-6.24-13.485-6.267-13.577l0,.017a44.11,44.11,0,0,1-3.869,9,23.545,23.545,0,0,1-4.942,6.2,10.242,10.242,0,0,1-10.314,2.287,13.58,13.58,0,0,1-7.44-6.33,32.238,32.238,0,0,1-3.624-9.864,62.247,62.247,0,0,1-1.26-13.07l0,.024a88.253,88.253,0,0,1-4.866,13.889,46.016,46.016,0,0,1-6.106,10.2c-2.7,3.272-5.587,5.277-8.568,5.959A13.427,13.427,0,0,1,52.989,174.277ZM71.03,108.26c-1.8,0-3.814.512-6.353,4.223-2.577,3.766-5.4,10.334-8.872,20.67-2.466,7.333-3.741,13.738-3.787,19.039-.038,4.311.759,7.843,2.305,10.214a5.871,5.871,0,0,0,4.216,2.935c.062.005.125.008.188.008,1.121,0,2.45-.869,3.951-2.584a37.029,37.029,0,0,0,4.442-6.75,97.234,97.234,0,0,0,7.746-19.96,51.406,51.406,0,0,0,1.77-15.968c-.249-4.505-1.213-8.239-2.644-10.243a3.2,3.2,0,0,0-2.293-1.559C71.46,108.268,71.241,108.26,71.03,108.26Zm-33.1-41.395a1.234,1.234,0,0,0-.133.006,9.447,9.447,0,0,0-3.431,1.766c-1.839,1.37-4.55,4.076-7.026,9.189-4.733,9.774-8.059,30.416-8.092,30.623a71.569,71.569,0,0,0,8.185-7.765c4-4.415,9.289-11.339,11.733-19.249,2.621-8.484,1.891-12,.816-13.458A2.551,2.551,0,0,0,37.931,66.865Z" transform="translate(288.8 168.631)" fill="#09a6a0"/>
    <path id="Path_12" data-name="Path 12" d="M1131.019,1429.552s-8.147,2.622-10.636-8.39,8.427-21.546,8.427-21.546.836,5.841,3.16,9.767c1.948,3.29,4.423,5.73,5.458,8.81,2.1,6.259-1.149,7.572-1.149,7.572l-6.99-8.146Z" transform="translate(-620 -1250)" fill="#39b349"/>
    <path id="Path_13" data-name="Path 13" d="M1146.026,1504.387s-34.113-13.72-27.527-47.455,34.682-49.206,34.682-49.206-.411,10.8,6.835,25.013c6.073,11.908,13.871,22.97,17.1,34.117,6.559,22.656-17.924,40.6-17.924,40.6a49.282,49.282,0,0,1-11.336-18.131c-4.158-11.524-5.3-27.963-5.3-27.963s-3.275,13.8-2.408,24.555A43.55,43.55,0,0,0,1146.026,1504.387Z" transform="matrix(0.799, -0.602, 0.602, 0.799, -1350.239, -253.421)" fill="#39b349"/>
    <path id="Path_14" data-name="Path 14" d="M1128.914,1497.295c7.363-9.046,6-8.521,16.831-10.309s16.421,2.411,26.508,3.156c8.811.65,14.306-3.156,14.306-3.156s-4.418,15.463-14.306,23.353-16.147,10.677-27.771,9.678-17.672-13.885-17.672-13.885a38.476,38.476,0,0,1,10.729-3.577,51.459,51.459,0,0,1,12.833,0,23.915,23.915,0,0,0-21.459-5.26Z" transform="translate(-620 -1250)" fill="#39b349"/>
  </g>
</svg>
