<svg xmlns="http://www.w3.org/2000/svg" width="24.43" height="21.883" viewBox="0 0 24.43 21.883">
  <path id="about" d="M55.961,609.3a13.679,13.679,0,0,0,6.191,4.175c-.3-5.119-3.355-7.62-8.2-7.645-5.791-.029-9.154,4.657-7.886,9.27C46.071,615.1,55.88,611.409,55.961,609.3Zm7.113,9.172c1.8-.463,3.141-.434,3.141-4.125a4.261,4.261,0,0,0-2.57-3.938c-1.11-4.2-4.567-8.479-9.757-8.6-.166,0-.33,0-.492,0a9.1,9.1,0,0,0-8.861,8.527,4.186,4.186,0,0,0-2.747,4.007c.121,4.141,1.813,4.207,4.066,4.253v-8.014c.047-3.426,3.4-7.227,8.034-7.227,4.6,0,7.148,3.582,8.271,6.764v8.241a8.9,8.9,0,0,1-1.94,2.2,11.013,11.013,0,0,1-3.525,2.116.547.547,0,0,0-.345.65.45.45,0,0,0,.591.335,11.292,11.292,0,0,0,3.84-2.3,12.008,12.008,0,0,0,2.294-2.885Zm-13.835-2.652a1.024,1.024,0,1,0,.3-.724A1.025,1.025,0,0,0,49.238,615.818Zm7.71,0a1.024,1.024,0,1,0,.3-.724A1.025,1.025,0,0,0,56.948,615.818Z" transform="translate(-41.785 -601.808)" fill="#130f26"/>
</svg>
