<svg xmlns="http://www.w3.org/2000/svg" width="19.994" height="19.996" viewBox="0 0 19.994 19.996">
  <path id="en-ar" d="M296.776,1125.789a.768.768,0,1,0,1.4-.636Zm-8.2-.636a.768.768,0,1,0,1.4.636Zm4.8-8.91.7-.307a.769.769,0,0,0-1.409,0Zm-8.5-9.474a.77.77,0,0,0-1.46.492Zm-.948,2.03a.77.77,0,0,0,1.46-.492Zm-4.909.01a.769.769,0,0,0,0,1.538Zm11.279,1.538a.769.769,0,0,0,0-1.538Zm-8.489,1.579a.77.77,0,1,0-1.479.43Zm2.472,5.208.472-.6h0Zm5.741,3.927a.769.769,0,1,0,.55-1.435ZM289,1109.741a.769.769,0,1,0-1.5-.328Zm-3.963,6.388-.549-.533h0Zm-6.363,3.527a.772.772,0,0,0,.105,1.421.766.766,0,0,0,.587-.045Zm19.5,5.494L297,1122.588l-1.4.638,1.172,2.563Zm-8.2.636,1.172-2.563-1.4-.638-1.172,2.563Zm1.176-2.573,2.93-6.665-1.409-.615-2.929,6.665Zm1.522-6.665,2.93,6.665,1.408-.615-2.929-6.665Zm3.634,5.588h-5.859v1.538H296.3Zm-12.887-14.878.513,1.538,1.46-.492-.512-1.538Zm-4.4,3.087H290.3v-1.538H279.021Zm2.051,1.794-.739.215h0s0,.01,0,.01.006.02.01.031q.012.046.037.123c.033.1.081.246.145.421a13.849,13.849,0,0,0,.6,1.374,10.014,10.014,0,0,0,2.679,3.425l.945-1.21a8.66,8.66,0,0,1-2.251-2.9,11.957,11.957,0,0,1-.532-1.22c-.057-.154-.1-.277-.125-.359l-.029-.092a.122.122,0,0,0-.006-.02v-.01h0Zm2.739,5.6a22.641,22.641,0,0,0,4.01,2.358c.622.3,1.171.543,1.564.708.2.082.356.143.466.185.055.02.1.042.128.051s.026.01.034.02h.012l.276-.718.275-.717h-.008c-.006-.01-.015-.01-.029-.01s-.065-.031-.117-.052c-.1-.042-.255-.1-.441-.185-.376-.154-.9-.379-1.5-.666a21.377,21.377,0,0,1-3.727-2.184Zm4.439-8.162-.751-.164h0v.01a.139.139,0,0,0-.007.031c0,.02-.017.072-.031.123-.028.113-.071.277-.128.482-.117.421-.3.995-.544,1.64a11.778,11.778,0,0,1-2.3,3.9l1.1,1.077a13.24,13.24,0,0,0,2.634-4.419c.269-.7.461-1.323.589-1.774.063-.225.111-.41.142-.533.017-.062.028-.113.036-.144s.007-.031.009-.042a.131.131,0,0,1,0-.021h0Zm-3.76,6.019a20.885,20.885,0,0,1-3.727,2.871c-.6.369-1.12.666-1.495.871-.187.1-.336.185-.439.236a.9.9,0,0,1-.116.062c-.013.01-.023.01-.029.02h-.008l.346.687.346.687h0s.005,0,.009-.01.02-.01.035-.01c.03-.02.073-.042.128-.072.111-.062.27-.143.468-.246.395-.225.944-.533,1.568-.923a22.949,22.949,0,0,0,4.01-3.1Z" transform="translate(-278.25 -1106.244)" fill="#fff"/>
</svg>
