<svg xmlns="http://www.w3.org/2000/svg" width="20" height="20" viewBox="0 0 20 20">
  <path id="featre" d="M169.18,281.41a2.41,2.41,0,1,1,2.41,2.41A2.411,2.411,0,0,1,169.18,281.41Zm-3.85,10.349,2.89-3.729-.04.02a.749.749,0,0,0,.08-.75.737.737,0,0,0-.609-.44.768.768,0,0,0-.7.31l-2.419,3.13-2.771-2.18a.79.79,0,0,0-.57-.16.775.775,0,0,0-.5.3l-2.959,3.851-.061.09a.747.747,0,0,0,.21.95.84.84,0,0,0,.46.15.709.709,0,0,0,.59-.3l2.51-3.231,2.85,2.141.09.059A.748.748,0,0,0,165.33,291.759Zm2.12-10.979a4.741,4.741,0,0,0-.06.75,4.064,4.064,0,0,0,4.06,4.069,4.629,4.629,0,0,0,.74-.069V293.6c0,3.391-2,5.4-5.4,5.4H159.4c-3.4,0-5.4-2.01-5.4-5.4v-7.4c0-3.4,2-5.42,5.4-5.42Z" transform="translate(-154 -279)" fill="#130f26" fill-rule="evenodd"/>
</svg>
