<svg xmlns="http://www.w3.org/2000/svg" width="19" height="20" viewBox="0 0 19 20">
  <path id="home" d="M441.135,241.773v-3.057a1.418,1.418,0,0,1,1.423-1.414h2.875a1.429,1.429,0,0,1,1.006.414,1.409,1.409,0,0,1,.417,1v3.057a1.215,1.215,0,0,0,.356.867,1.235,1.235,0,0,0,.871.36h1.961a3.46,3.46,0,0,0,2.443-1,3.408,3.408,0,0,0,1.013-2.423v-8.711a2.472,2.472,0,0,0-.895-1.9l-6.671-5.289a3.1,3.1,0,0,0-3.949.071l-6.518,5.218a2.476,2.476,0,0,0-.967,1.9v8.7A3.443,3.443,0,0,0,437.956,243h1.916a1.232,1.232,0,0,0,1.236-1.218Z" transform="translate(-434.5 -223)" fill="#130f26"/>
</svg>
