<svg xmlns="http://www.w3.org/2000/svg" width="20.78" height="20" viewBox="0 0 20.78 20">
  <path id="log_out" data-name="log out" d="M1168.47,338.236a.758.758,0,0,0,.08,1,.772.772,0,0,0,1.09,0l1.59-1.6v4.14h1.54v-4.14l1.59,1.6.09.074a.767.767,0,0,0,1-.074.76.76,0,0,0,0-1.09l-2.91-2.92-.09-.082A.756.756,0,0,0,1172,335a.764.764,0,0,0-.55.23l-2.91,2.92Zm-2.24,3.549a4.485,4.485,0,0,0-4.23,4.5v5.178a4.493,4.493,0,0,0,4.45,4.315h11.11l.21-.005a4.488,4.488,0,0,0,4.23-4.512v-5.169a4.493,4.493,0,0,0-4.45-4.314h-4.78v6.105l-.01.107a.768.768,0,0,1-1.53-.107V341.78h-4.79Z" transform="translate(355.78 -1162) rotate(90)" fill="#130f26" fill-rule="evenodd"/>
</svg>
