<svg xmlns="http://www.w3.org/2000/svg" width="19" height="20" viewBox="0 0 19 20">
  <path id="setting" d="M284.4,346.58a2.3,2.3,0,0,1,.828.79,2.018,2.018,0,0,1-.02,2.05l-.716,1.2a2.1,2.1,0,0,1-2.892.74,1.63,1.63,0,0,0-.9-.23,1.909,1.909,0,0,0-1.891,1.82A2.068,2.068,0,0,1,276.7,355h-1.39a2.07,2.07,0,0,1-2.126-2.05,1.891,1.891,0,0,0-1.88-1.82,1.585,1.585,0,0,0-.9.23,2.162,2.162,0,0,1-1.084.3,2.133,2.133,0,0,1-1.819-1.04l-.7-1.2a1.993,1.993,0,0,1-.02-2.05,2.116,2.116,0,0,1,.817-.79,1.637,1.637,0,0,0,.644-.64,1.834,1.834,0,0,0-.664-2.5,2.044,2.044,0,0,1-.757-2.83l.685-1.18a2.125,2.125,0,0,1,2.882-.76,1.963,1.963,0,0,0,2.565-.69,1.538,1.538,0,0,0,.235-.88,1.789,1.789,0,0,1,.286-1.06,2.2,2.2,0,0,1,1.809-1.04h1.441a2.152,2.152,0,0,1,1.819,1.04,1.776,1.776,0,0,1,.276,1.06,1.553,1.553,0,0,0,.235.88,1.974,1.974,0,0,0,2.576.69,2.112,2.112,0,0,1,2.871.76l.685,1.18a2.027,2.027,0,0,1-.756,2.83,1.822,1.822,0,0,0-.654,2.5A1.543,1.543,0,0,0,284.4,346.58Zm-11.292-1.57a2.888,2.888,0,1,0,2.9-2.83A2.853,2.853,0,0,0,273.11,345.01Z" transform="translate(-266.5 -335)" fill="#130f26" fill-rule="evenodd"/>
</svg>
