<svg xmlns="http://www.w3.org/2000/svg" width="20" height="20" viewBox="0 0 20 20">
  <path id="shop" d="M894.121,288.233h2.768a.766.766,0,0,0,0-1.531h-2.768a.766.766,0,0,0,0,1.531Zm6.056-5.306a1.687,1.687,0,0,1,1.408.684,2.206,2.206,0,0,1,.38,1.754l-.949,6.7a2.568,2.568,0,0,1-2.528,2.235h-10.9a2.568,2.568,0,0,1-2.538-2.387l-.919-11.125-1.509-.265a.766.766,0,0,1,.26-1.509l2.383.366a.764.764,0,0,1,.62.694l.19,2.286a.614.614,0,0,0,.609.572Zm-12.751,12.981a1.546,1.546,0,1,0,1.509,1.551A1.535,1.535,0,0,0,887.426,295.908Zm11.242,0a1.546,1.546,0,1,0,1.508,1.551A1.534,1.534,0,0,0,898.668,295.908Z" transform="translate(-882 -279)" fill="#130f26" fill-rule="evenodd"/>
</svg>
